<?xml version="1.0" encoding="utf-8"?>
<!-- Generator: Adobe Illustrator 19.0.0, SVG Export Plug-In . SVG Version: 6.00 Build 0)  -->
<svg version="1.1" xmlns="http://www.w3.org/2000/svg" xmlns:xlink="http://www.w3.org/1999/xlink" x="0px" y="0px"
	 viewBox="0 0 530.7 159.3" style="enable-background:new 0 0 530.7 159.3;" xml:space="preserve">
<style type="text/css">
	.st0{fill:#306799;}
	.st1{opacity:0.33;}
	.st2{fill:none;stroke:#306799;stroke-width:5;stroke-miterlimit:10;}
	.st3{fill:#4FA0CA;}
	.st4{fill:#17A7CB;}
</style>
<g id="Camada_1">
	<g id="XMLID_246_">
		<path id="XMLID_250_" class="st0" d="M132.1,29c-3.5-0.3-6.9-0.9-10.3-0.7c-3.4,0.2-6.7,1.2-10.3,1.9c1.4-1.9,2.7-3.7,4-5.6
			c-18.4-4.3-50.7,1.3-69.7,28c-7.4,10.4-12.1,22-13.3,34.7c-1.3,12.7,1,24.9,6.1,36.6c5.2,11.8,13.4,21.1,23.7,28.7
			c-0.1,0.1-0.2,0.2-0.2,0.3c-2.5-0.9-4.9-1.7-7.3-2.7c-24.3-10.3-39.1-28.7-44.4-54.4C7,80.6,9.4,65.6,16,51.4
			c3.8-8.2,8.9-15.4,15.6-21.5c4.2-3.9,9.2-6.9,14.2-9.8c9.4-5.6,19.6-8.3,30.4-9.5c14.3-1.6,27.7,1.2,40.4,7.3
			c5.6,2.7,10.6,6.4,15.2,10.6C131.9,28.7,132,28.9,132.1,29z"/>
	</g>
</g>
<g id="Camada_2" class="st1">
</g>
<g id="Camada_4">
	<g id="XMLID_44_">
		<g id="XMLID_62_">
			<path id="XMLID_81_" class="st0" d="M228,97.3h-11v33h-7.8v-33h-11v-6.9H228V97.3z"/>
			<path id="XMLID_79_" class="st0" d="M259.3,130.3H233V90.5h26.3v6.4h-18.7v9.5H259v6.2h-18.5v11h18.7V130.3z"/>
			<path id="XMLID_77_" class="st0" d="M301.7,123.1c-2,2.4-4.4,4.4-7.3,5.8s-6,2.1-9.4,2.1c-3,0-5.7-0.5-8.3-1.6
				c-2.6-1.1-4.8-2.6-6.8-4.4c-1.9-1.9-3.4-4-4.5-6.6c-1.1-2.5-1.7-5.2-1.7-8.1s0.6-5.6,1.7-8.1c1.1-2.5,2.6-4.7,4.5-6.6
				c1.9-1.9,4.2-3.3,6.8-4.4c2.6-1.1,5.4-1.6,8.3-1.6c3.4,0,6.6,0.7,9.4,2.1c2.8,1.4,5.2,3.3,7.1,5.6l-5.3,5.5
				c-1.2-1.8-2.8-3.2-4.8-4.3c-1.9-1.1-4.1-1.6-6.4-1.6c-1.9,0-3.6,0.4-5.3,1.1c-1.6,0.7-3.1,1.7-4.3,2.9c-1.2,1.2-2.2,2.6-2.9,4.2
				c-0.7,1.6-1.1,3.3-1.1,5.2c0,1.8,0.4,3.5,1.1,5.1c0.7,1.6,1.7,3,2.9,4.2c1.2,1.2,2.7,2.2,4.3,2.9c1.6,0.7,3.4,1.1,5.3,1.1
				c2.5,0,4.6-0.6,6.5-1.7c1.9-1.1,3.5-2.6,4.7-4.4L301.7,123.1z"/>
			<path id="XMLID_75_" class="st0" d="M336.9,130.3h-7.7v-17.6h-15.7v17.6h-7.7V90.5h7.7v15.8h15.7V90.5h7.7V130.3z"/>
			<path id="XMLID_73_" class="st0" d="M371.8,97.3h-11v33h-7.8v-33h-11v-6.9h29.9V97.3z"/>
			<path id="XMLID_70_" class="st0" d="M415.3,110.4c0,2.9-0.6,5.6-1.7,8.1c-1.1,2.5-2.6,4.7-4.6,6.6c-1.9,1.9-4.2,3.3-6.7,4.4
				s-5.3,1.6-8.2,1.6c-2.9,0-5.6-0.5-8.2-1.6s-4.8-2.6-6.7-4.4c-1.9-1.9-3.4-4-4.6-6.6c-1.1-2.5-1.7-5.2-1.7-8.1s0.6-5.6,1.7-8.1
				c1.1-2.5,2.6-4.7,4.6-6.6c1.9-1.9,4.2-3.3,6.7-4.4c2.6-1.1,5.3-1.6,8.2-1.6c2.9,0,5.6,0.5,8.2,1.6c2.6,1.1,4.8,2.5,6.7,4.4
				c1.9,1.9,3.4,4.1,4.6,6.6C414.8,104.8,415.3,107.5,415.3,110.4z M407.6,110.4c0-1.8-0.3-3.5-1-5.2c-0.7-1.6-1.7-3-2.9-4.2
				c-1.2-1.2-2.6-2.2-4.3-2.9c-1.6-0.7-3.4-1.1-5.2-1.1c-1.9,0-3.6,0.4-5.2,1.1c-1.6,0.7-3.1,1.7-4.3,2.9c-1.2,1.2-2.2,2.6-2.9,4.2
				c-0.7,1.6-1,3.3-1,5.2c0,1.8,0.3,3.5,1,5.1c0.7,1.6,1.7,3.1,2.9,4.3c1.2,1.2,2.6,2.2,4.3,2.9c1.6,0.7,3.4,1.1,5.2,1.1
				c1.8,0,3.6-0.4,5.2-1.1c1.6-0.7,3.1-1.7,4.3-2.9c1.2-1.2,2.2-2.6,2.9-4.3C407.3,113.9,407.6,112.1,407.6,110.4z"/>
			<path id="XMLID_67_" class="st0" d="M462.1,110.4c0,2.9-0.6,5.6-1.7,8.1c-1.1,2.5-2.6,4.7-4.6,6.6c-1.9,1.9-4.2,3.3-6.7,4.4
				s-5.3,1.6-8.2,1.6c-2.9,0-5.6-0.5-8.2-1.6s-4.8-2.6-6.7-4.4c-1.9-1.9-3.4-4-4.6-6.6c-1.1-2.5-1.7-5.2-1.7-8.1s0.6-5.6,1.7-8.1
				c1.1-2.5,2.6-4.7,4.6-6.6c1.9-1.9,4.2-3.3,6.7-4.4c2.6-1.1,5.3-1.6,8.2-1.6c2.9,0,5.6,0.5,8.2,1.6c2.6,1.1,4.8,2.5,6.7,4.4
				c1.9,1.9,3.4,4.1,4.6,6.6C461.6,104.8,462.1,107.5,462.1,110.4z M454.4,110.4c0-1.8-0.3-3.5-1-5.2c-0.7-1.6-1.7-3-2.9-4.2
				c-1.2-1.2-2.6-2.2-4.3-2.9c-1.6-0.7-3.4-1.1-5.2-1.1c-1.9,0-3.6,0.4-5.2,1.1c-1.6,0.7-3.1,1.7-4.3,2.9c-1.2,1.2-2.2,2.6-2.9,4.2
				c-0.7,1.6-1,3.3-1,5.2c0,1.8,0.3,3.5,1,5.1c0.7,1.6,1.7,3.1,2.9,4.3c1.2,1.2,2.6,2.2,4.3,2.9c1.6,0.7,3.4,1.1,5.2,1.1
				c1.8,0,3.6-0.4,5.2-1.1c1.6-0.7,3.1-1.7,4.3-2.9c1.2-1.2,2.2-2.6,2.9-4.3C454.1,113.9,454.4,112.1,454.4,110.4z"/>
			<path id="XMLID_65_" class="st0" d="M495.2,130.3h-27V90.5h7.9v32.4h19.1V130.3z"/>
			<path id="XMLID_63_" class="st0" d="M526.3,119.8c0,1.5-0.3,2.9-1,4.3s-1.6,2.5-2.7,3.6c-1.2,1-2.5,1.9-4.1,2.5
				c-1.6,0.6-3.4,0.9-5.3,0.9c-1.7,0-3.3-0.1-4.7-0.3c-1.4-0.2-2.7-0.5-3.9-0.9c-1.2-0.4-2.4-1-3.5-1.7c-1.1-0.7-2.3-1.5-3.5-2.5
				l5.5-5.5c1.6,1.3,3.2,2.3,4.7,2.8s3.2,0.8,5,0.8c0.7,0,1.4-0.1,2.1-0.3c0.6-0.2,1.2-0.5,1.7-0.9c0.5-0.4,0.9-0.8,1.1-1.3
				c0.3-0.5,0.4-1,0.4-1.6c0-0.6-0.1-1.2-0.3-1.7s-0.6-1-1.2-1.4c-0.6-0.5-1.4-0.9-2.5-1.4c-1.1-0.5-2.4-1-4.1-1.6
				c-1.5-0.5-2.9-1.1-4.2-1.8c-1.3-0.7-2.5-1.5-3.5-2.5c-1-1-1.8-2.1-2.4-3.4c-0.6-1.3-0.9-2.8-0.9-4.6c0-1.7,0.3-3.3,1-4.7
				c0.7-1.4,1.6-2.6,2.8-3.7c1.2-1,2.6-1.8,4.1-2.4c1.6-0.6,3.3-0.8,5.1-0.8c3.1,0,5.6,0.4,7.7,1.2c2.1,0.8,4,2,5.6,3.5l-5.4,5.4
				c-1-1-2.1-1.7-3.3-2.2c-1.2-0.5-2.7-0.8-4.3-0.8c-0.8,0-1.5,0.1-2.1,0.3c-0.6,0.2-1.2,0.5-1.7,0.9c-0.5,0.4-0.8,0.8-1.1,1.3
				c-0.3,0.5-0.4,1.1-0.4,1.6c0,0.6,0.1,1.2,0.4,1.7c0.3,0.5,0.7,1,1.3,1.5c0.6,0.5,1.5,1,2.5,1.4c1,0.5,2.4,1,3.9,1.6
				c2,0.7,3.7,1.5,5.1,2.3c1.4,0.8,2.6,1.7,3.5,2.7s1.6,2.1,2,3.4C526.1,116.9,526.3,118.3,526.3,119.8z"/>
		</g>
		<g id="XMLID_45_">
			<path id="XMLID_60_" class="st0" d="M237.3,66.3c-1.1,1.4-2.4,2.6-3.7,3.6c-1.3,1-2.7,1.9-4.2,2.5c-1.4,0.7-2.9,1.2-4.4,1.5
				c-1.5,0.3-3,0.5-4.5,0.5c-3,0-5.7-0.5-8.3-1.6s-4.9-2.5-6.8-4.4c-1.9-1.9-3.5-4.1-4.6-6.6c-1.1-2.5-1.7-5.3-1.7-8.2
				c0-2.9,0.6-5.5,1.7-8.1c1.1-2.5,2.6-4.7,4.6-6.6c1.9-1.9,4.2-3.3,6.8-4.4c2.6-1.1,5.4-1.6,8.3-1.6c3.4,0,6.5,0.7,9.3,2.1
				c2.8,1.4,5.2,3.3,7.2,5.6l-5.2,5.3c-1.5-2-3.2-3.5-5-4.4c-1.9-0.9-3.9-1.3-6.2-1.3c-1.9,0-3.7,0.3-5.3,1
				c-1.7,0.7-3.1,1.7-4.4,2.9c-1.2,1.2-2.2,2.6-2.9,4.2c-0.7,1.6-1.1,3.3-1.1,5.2c0,1.9,0.4,3.6,1.1,5.2c0.7,1.6,1.7,3,2.9,4.3
				c1.2,1.2,2.7,2.2,4.4,2.9c1.7,0.7,3.4,1,5.3,1c1.8,0,3.5-0.3,5.1-1c1.6-0.7,3-1.5,4.3-2.6v-3.8h-8.2V53h15.6V66.3z"/>
			<path id="XMLID_58_" class="st0" d="M270.2,73.6h-27V33.8h7.9v32.4h19.1V73.6z"/>
			<path id="XMLID_55_" class="st0" d="M312.9,53.7c0,2.9-0.6,5.6-1.7,8.1c-1.1,2.5-2.6,4.7-4.6,6.6c-1.9,1.9-4.2,3.3-6.7,4.4
				s-5.3,1.6-8.2,1.6c-2.9,0-5.6-0.5-8.2-1.6s-4.8-2.6-6.7-4.4c-1.9-1.9-3.4-4-4.6-6.6c-1.1-2.5-1.7-5.2-1.7-8.1s0.6-5.6,1.7-8.1
				c1.1-2.5,2.6-4.7,4.6-6.6c1.9-1.9,4.2-3.3,6.7-4.4c2.6-1.1,5.3-1.6,8.2-1.6c2.9,0,5.6,0.5,8.2,1.6c2.6,1.1,4.8,2.5,6.7,4.4
				c1.9,1.9,3.4,4.1,4.6,6.6C312.3,48.1,312.9,50.8,312.9,53.7z M305.1,53.7c0-1.8-0.3-3.5-1-5.2c-0.7-1.6-1.7-3-2.9-4.2
				c-1.2-1.2-2.6-2.2-4.3-2.9c-1.6-0.7-3.4-1.1-5.2-1.1c-1.9,0-3.6,0.4-5.2,1.1c-1.6,0.7-3.1,1.7-4.3,2.9c-1.2,1.2-2.2,2.6-2.9,4.2
				c-0.7,1.6-1,3.3-1,5.2c0,1.8,0.3,3.5,1,5.1c0.7,1.6,1.7,3.1,2.9,4.3c1.2,1.2,2.6,2.2,4.3,2.9c1.6,0.7,3.4,1.1,5.2,1.1
				c1.8,0,3.6-0.4,5.2-1.1c1.6-0.7,3.1-1.7,4.3-2.9c1.2-1.2,2.2-2.6,2.9-4.3C304.8,57.2,305.1,55.5,305.1,53.7z"/>
			<path id="XMLID_51_" class="st0" d="M347.3,62.2c0,1.7-0.3,3.2-1,4.6c-0.7,1.4-1.6,2.6-2.7,3.6c-1.1,1-2.4,1.8-3.9,2.4
				c-1.5,0.6-3,0.8-4.7,0.8l-16.1,0V33.8h14.4c1.7,0,3.3,0.3,4.8,0.8c1.5,0.5,2.8,1.3,3.9,2.2c1.1,1,2,2.2,2.6,3.6
				c0.6,1.4,0.9,3,0.9,4.8c0,1.5-0.3,2.9-1,4.3c-0.7,1.4-1.5,2.6-2.6,3.5c0.9,0.4,1.6,1,2.3,1.6c0.7,0.7,1.3,1.4,1.7,2.2
				c0.5,0.8,0.8,1.7,1.1,2.6C347.2,60.4,347.3,61.3,347.3,62.2z M337.8,45.3c0-1-0.2-1.8-0.5-2.5c-0.4-0.7-0.9-1.3-1.5-1.7
				c-0.6-0.5-1.3-0.8-2.1-1c-0.8-0.2-1.6-0.3-2.5-0.3h-4.5v11c0.8,0,1.6,0,2.2,0s1.4,0,2.3,0c0.9,0,1.7-0.1,2.5-0.3
				c0.8-0.2,1.5-0.5,2.1-0.9c0.6-0.4,1.1-1,1.5-1.7C337.6,47.1,337.8,46.2,337.8,45.3z M339.3,61.8c0-0.8-0.2-1.6-0.5-2.3
				c-0.3-0.7-0.7-1.3-1.3-1.8c-0.5-0.5-1.2-0.9-1.9-1.1c-0.7-0.3-1.5-0.4-2.3-0.4c-1.1,0-2.2,0-3.3,0c-1.1,0-2.2,0-3.3,0v11h5.8
				c0.8,0,1.7-0.1,2.5-0.3c0.8-0.2,1.6-0.5,2.2-1s1.2-1,1.6-1.7C339.1,63.6,339.3,62.7,339.3,61.8z"/>
			<path id="XMLID_48_" class="st0" d="M393,73.6h-8.5l-3.7-8h-19.3l-3.7,8h-8.5l18.8-39.9h6L393,73.6z M377.8,59.2l-6.6-14.4
				l-6.7,14.4H377.8z"/>
			<path id="XMLID_46_" class="st0" d="M424,73.6h-27V33.8h7.9v32.4H424V73.6z"/>
		</g>
	</g>
	<line id="XMLID_43_" class="st2" x1="177.7" y1="6.4" x2="177.7" y2="154.7"/>
	<path id="XMLID_42_" class="st3" d="M97,37c-5.4,3.9-8.3,9.4-10.8,15.4c-0.1,0-0.3,0-0.4,0c-0.6-2.8-1.3-5.6-2-8.8
		c-2.4,2-4.8,3.7-6.9,5.8c-9.7,9.5-15.8,21.1-17.1,34.6c-1.7,16.2,3.1,30.6,13.5,43.3c8.6,10.4,19.9,15.4,32.9,16.9
		c4,0.5,8,0.3,12,0.5c0,0-0.1,0.1-0.3,0.2c-8.3,3.8-16.9,6.1-26.1,6c-11.8-0.1-22.1-4.1-31.1-11.6c-10.8-9-17.8-20.3-20.3-34.1
		c-3.2-18.4,1.3-34.8,13.5-48.9c9.3-10.8,21.2-17,35.3-19.1c2.5-0.4,5.1-0.4,7.6-0.6C96.9,36.7,96.9,36.8,97,37z"/>
	<path id="XMLID_41_" class="st4" d="M76.7,77.3c0.5,7,3.8,12.4,7.7,17.7c-0.1,0.1-0.1,0.2-0.2,0.3c-2.2-0.7-4.5-1.4-6.7-2.1
		c2.1,15.6,14.2,30.2,32.7,32.7c19.5,2.6,37.5-9.8,42.4-29.1c0,1.5,0.1,2.9,0,4.4c-0.6,9.9-4.2,18.6-11,25.9
		c-5.7,6-12.7,9.6-20.7,11.2c-11.6,2.3-22.4,0.3-31.9-6.8c-10.6-7.9-16.3-18.6-17.1-31.8c-0.4-7.3,1.1-14.2,4.2-20.8
		C76.1,78.3,76.4,77.9,76.7,77.3z"/>
</g>
<g id="Camada_5">
</g>
<g id="Camada_3">
</g>
</svg>
