<svg version="1" xmlns="http://www.w3.org/2000/svg" width="64.667" height="95.833" viewBox="0 0 64.667 95.833"><g fill-rule="evenodd" clip-rule="evenodd"><path fill="#4DA6D7" d="M30.72.984c.236.102.482.02.722.047.189-.024.388.05.571-.047h.369c.184.097.382.023.571.047.24-.027.487.055.724-.047h.646c.807.079 1.618.089 2.424.157 1.366.116 2.694.443 4.011.809a30.89 30.89 0 0 1 8.935 4.087 33.829 33.829 0 0 1 3.812 2.973c2.682 2.407 4.864 5.206 6.591 8.357a31.213 31.213 0 0 1 3.248 8.983c.37 1.866.393 3.75.407 5.64v.969c.043 2.531-.177 5.03-.835 7.486-.851 3.175-2.171 6.138-3.886 8.938-1.834 2.99-3.521 6.066-5.275 9.103a3104.045 3104.045 0 0 0-5.563 9.684 5198.608 5198.608 0 0 1-5.584 9.724c-1.934 3.359-3.861 6.725-5.797 10.083-1.359 2.359-2.711 4.72-4.07 7.081-.376.653-.708.656-1.079.009-2.267-3.949-4.534-7.897-6.803-11.844L18.304 71.82c-1.97-3.427-3.937-6.856-5.904-10.286-2.151-3.748-4.268-7.519-6.478-11.232-1.174-1.975-2.33-3.948-3.186-6.081-.983-2.45-1.694-4.979-1.962-7.611a28.68 28.68 0 0 1-.126-3.639v-.969c-.111-3.45.439-6.794 1.604-10.04a32.122 32.122 0 0 1 5.219-9.335c2.097-2.612 4.558-4.818 7.344-6.665 2.91-1.928 6.072-3.295 9.442-4.188a22.407 22.407 0 0 1 5.507-.745c.133-.003.772-.045.956-.045z"/><path fill="#4DA6D7" d="M31.448 1.067c-.242-.036-.504.11-.728-.083h.74c.063.037.059.065-.012.083zm2.23-.083c-.224.194-.487.048-.728.083-.071-.019-.076-.046-.012-.083h.74z"/><path fill="#4DA6D7" d="M31.448 1.067l.012-.083h.554c-.173.14-.373.083-.566.083zm1.49-.083c.003.028.006.057.011.083-.192 0-.393.056-.566-.083h.555z"/><path fill="#FFF" d="M57.515 31.934c0 13.987-11.337 25.322-25.325 25.318-13.985-.003-25.315-11.347-25.307-25.336C6.892 17.932 18.241 6.606 32.23 6.62c13.964.013 25.284 11.346 25.285 25.314z"/><path fill="#1F81B1" d="M26.688 52.515c-.374.11-.629-.155-.919-.258-2.965-1.053-5.633-2.61-7.924-4.779-3.104-2.937-4.919-6.579-5.963-10.686-1.825-7.172 1.071-15.213 5.757-19.521 2.97-2.732 6.448-4.603 10.437-5.426 2.655-.548 5.324-.8 8.026-.356 4.07.67 7.729 2.215 10.789 5.043.021.019.03.052.118.21-2.001-.336-3.906-.263-5.773.354l-.065-.113c.28-.388.549-.785.843-1.162.2-.258.205-.364-.161-.43-3.13-.57-6.214-.31-9.211.665-7.67 2.494-12.477 7.764-14.108 15.597-1.504 7.219.643 13.534 5.843 18.782.64.646 1.341 1.225 2.062 1.778.093.074.207.132.249.302z"/><path fill="#26A9E1" d="M36.84 19.015c-.015.038-.021.093-.051.115-1.375 1.038-2.191 2.474-2.87 4.01-.049.111-.033.324-.223.291-.139-.024-.104-.202-.13-.318-.132-.585-.267-1.169-.393-1.756-.057-.265-.119-.38-.404-.161-3.769 2.895-6.17 6.623-6.629 11.398-.587 6.09 1.585 11.091 6.397 14.869 2.049 1.61 4.514 2.268 7.075 2.572.906.107 1.813.085 2.721.105.164.004.327 0 .47 0 .047.133-.011.169-.064.192-3.783 1.681-7.677 2.28-11.675.927-4.007-1.357-6.946-4.066-8.916-7.754-3.121-5.841-2.698-13.393 2.34-18.998 3.216-3.577 7.245-5.351 12.006-5.569.09-.003.183.001.273.011.026.003.045.039.073.066z"/><path fill="#2AB0E5" d="M31.05 30.833c.185 1.784.988 3.257 1.981 4.649.075.105.248.216.144.353-.103.134-.257-.003-.382-.04a25.696 25.696 0 0 1-1.143-.364c-.295-.102-.394-.032-.333.289.507 2.653 1.757 4.89 3.85 6.598a11.047 11.047 0 0 0 15.03-.926 11.061 11.061 0 0 0 2.61-4.46c.033-.11.02-.25.203-.304.113.556.02 1.104-.052 1.638-.557 4.16-2.539 7.436-6.414 9.182-8.482 3.821-15.778-2.125-16.845-8.771-.415-2.588-.121-5.054 1.009-7.417.07-.145.1-.326.342-.427z"/></g></svg>