<svg version="1" xmlns="http://www.w3.org/2000/svg" xmlns:xlink="http://www.w3.org/1999/xlink" width="523" height="152.5" viewBox="0 0 523 152.5"><defs><path id="a" d="M-26-283.39h595.28V558.5H-26z"/></defs><clipPath id="b"><use xlink:href="#a" overflow="visible"/></clipPath><path clip-path="url(#b)" fill="#007EAE" d="M126.425 24.566c-3.452-.259-6.919-.873-10.339-.674-3.381.197-6.713 1.216-10.282 1.917l4.02-5.576c-18.42-4.254-50.669 1.336-69.683 27.986-7.446 10.436-12.069 21.968-13.344 34.712-1.271 12.702.961 24.909 6.113 36.58 5.196 11.769 13.418 21.079 23.68 28.723l-.245.35c-2.452-.897-4.95-1.689-7.35-2.711-24.318-10.334-39.07-28.732-44.419-54.354-3.196-15.305-.808-30.291 5.746-44.537 3.77-8.195 8.932-15.433 15.557-21.533 4.243-3.907 9.218-6.858 14.168-9.811 9.378-5.598 19.589-8.251 30.384-9.481 14.293-1.63 27.65 1.181 40.435 7.343 5.615 2.706 10.562 6.445 15.166 10.634.165.152.303.332.393.432"/><path d="M222.3 92.947h-11.019v32.957h-7.828V92.947h-11.019v-6.88H222.3v6.88zm31.311 32.956h-26.325V86.066h26.325v6.382h-18.747v9.523h18.498v6.232h-18.498v10.969h18.747v6.731zm42.43-7.179c-1.996 2.427-4.414 4.355-7.256 5.784s-5.975 2.144-9.398 2.144c-2.959 0-5.732-.541-8.326-1.621-2.592-1.08-4.848-2.55-6.766-4.413-1.918-1.861-3.431-4.046-4.537-6.556-1.106-2.509-1.66-5.21-1.66-8.102s.553-5.592 1.66-8.102a20.936 20.936 0 0 1 4.537-6.581c1.918-1.877 4.174-3.349 6.766-4.413 2.594-1.063 5.367-1.595 8.326-1.595 3.424 0 6.557.715 9.398 2.144 2.842 1.43 5.211 3.291 7.105 5.584l-5.336 5.484c-1.229-1.762-2.816-3.183-4.76-4.263-1.945-1.08-4.082-1.62-6.408-1.62-1.861 0-3.613.357-5.26 1.072a14.06 14.06 0 0 0-4.313 2.892 13.698 13.698 0 0 0-2.917 4.238c-.715 1.612-1.072 3.333-1.072 5.16 0 1.795.356 3.499 1.072 5.11a13.658 13.658 0 0 0 2.917 4.238 14.049 14.049 0 0 0 4.313 2.892c1.646.715 3.398 1.072 5.26 1.072 2.461 0 4.637-.556 6.531-1.67a14.817 14.817 0 0 0 4.738-4.413l5.386 5.535zm35.199 7.179h-7.729v-17.65h-15.705v17.65h-7.729V86.066h7.729v15.805h15.705V86.066h7.729v39.837zm34.851-32.956h-11.02v32.957h-7.827V92.947h-11.019v-6.88h29.865v6.88zm43.624 13.013c0 2.859-.556 5.551-1.668 8.077-1.113 2.526-2.631 4.72-4.557 6.581-1.926 1.862-4.167 3.333-6.724 4.413s-5.278 1.621-8.166 1.621c-2.889 0-5.619-.541-8.192-1.621s-4.822-2.55-6.748-4.413c-1.926-1.861-3.444-4.046-4.557-6.556-1.112-2.509-1.668-5.21-1.668-8.102s.556-5.601 1.668-8.127c1.112-2.525 2.631-4.719 4.557-6.581 1.926-1.861 4.175-3.324 6.748-4.388 2.573-1.063 5.304-1.595 8.192-1.595s5.609.532 8.166 1.595c2.557 1.064 4.798 2.535 6.724 4.413a20.993 20.993 0 0 1 4.557 6.581c1.112 2.51 1.668 5.21 1.668 8.102zm-7.728 0c0-1.828-.35-3.548-1.05-5.16a13.553 13.553 0 0 0-2.872-4.238 13.874 13.874 0 0 0-4.271-2.892 12.817 12.817 0 0 0-5.194-1.072c-1.865 0-3.614.357-5.246 1.072a13.868 13.868 0 0 0-4.271 2.892 13.553 13.553 0 0 0-2.872 4.238c-.699 1.612-1.049 3.333-1.049 5.16 0 1.795.35 3.507 1.049 5.135a13.46 13.46 0 0 0 2.872 4.263 13.85 13.85 0 0 0 4.271 2.892c1.632.715 3.381 1.072 5.246 1.072 1.831 0 3.563-.357 5.194-1.072a13.822 13.822 0 0 0 4.271-2.892 13.46 13.46 0 0 0 2.872-4.263 12.849 12.849 0 0 0 1.05-5.135zm54.545 0c0 2.859-.556 5.551-1.668 8.077-1.113 2.526-2.631 4.72-4.557 6.581-1.926 1.862-4.167 3.333-6.724 4.413s-5.278 1.621-8.166 1.621c-2.889 0-5.619-.541-8.192-1.621s-4.822-2.55-6.748-4.413c-1.926-1.861-3.444-4.046-4.557-6.556-1.112-2.509-1.668-5.21-1.668-8.102s.556-5.601 1.668-8.127c1.112-2.525 2.631-4.719 4.557-6.581 1.926-1.861 4.175-3.324 6.748-4.388 2.573-1.063 5.304-1.595 8.192-1.595s5.609.532 8.166 1.595c2.557 1.064 4.798 2.535 6.724 4.413a20.993 20.993 0 0 1 4.557 6.581c1.113 2.51 1.668 5.21 1.668 8.102zm-7.727 0c0-1.828-.35-3.548-1.05-5.16a13.553 13.553 0 0 0-2.872-4.238 13.874 13.874 0 0 0-4.271-2.892 12.817 12.817 0 0 0-5.194-1.072c-1.865 0-3.614.357-5.246 1.072a13.868 13.868 0 0 0-4.271 2.892 13.553 13.553 0 0 0-2.872 4.238c-.699 1.612-1.049 3.333-1.049 5.16 0 1.795.35 3.507 1.049 5.135a13.46 13.46 0 0 0 2.872 4.263 13.85 13.85 0 0 0 4.271 2.892c1.632.715 3.381 1.072 5.246 1.072 1.831 0 3.563-.357 5.194-1.072a13.822 13.822 0 0 0 4.271-2.892 13.46 13.46 0 0 0 2.872-4.263c.7-1.628 1.05-3.34 1.05-5.135zm40.733 19.943h-26.974V86.066h7.878v32.358h19.096v7.479zm31.112-10.47c0 1.496-.324 2.917-.973 4.263s-1.554 2.535-2.717 3.565c-1.164 1.031-2.543 1.854-4.139 2.468-1.596.614-3.357.922-5.285.922-1.729 0-3.282-.1-4.661-.299a20.136 20.136 0 0 1-3.89-.947 18.616 18.616 0 0 1-3.489-1.67 32.92 32.92 0 0 1-3.466-2.468l5.484-5.534c1.596 1.33 3.157 2.269 4.687 2.817s3.191.823 4.986.823c.73 0 1.421-.108 2.069-.324a5.81 5.81 0 0 0 1.695-.873 4.263 4.263 0 0 0 1.146-1.296 3.286 3.286 0 0 0 .424-1.645c0-.631-.117-1.197-.35-1.695s-.647-.98-1.246-1.446c-.599-.465-1.43-.939-2.493-1.421-1.063-.481-2.427-1.022-4.088-1.62a37.978 37.978 0 0 1-4.213-1.82 14.735 14.735 0 0 1-3.54-2.468 11.29 11.29 0 0 1-2.443-3.39c-.615-1.296-.922-2.825-.922-4.587 0-1.695.34-3.257 1.021-4.687a11.044 11.044 0 0 1 2.792-3.665c1.18-1.013 2.56-1.802 4.139-2.368 1.578-.564 3.282-.848 5.11-.848 3.058 0 5.634.399 7.728 1.197a16.85 16.85 0 0 1 5.585 3.49l-5.385 5.435a10.772 10.772 0 0 0-3.341-2.219c-1.23-.515-2.676-.773-4.338-.773-.765 0-1.471.117-2.119.349a5.61 5.61 0 0 0-1.67.922c-.466.382-.84.831-1.122 1.346a3.333 3.333 0 0 0-.424 1.62c0 .632.133 1.206.399 1.72.266.516.714 1.015 1.346 1.496.631.482 1.471.964 2.518 1.446 1.048.482 2.352 1.005 3.914 1.57 1.994.698 3.706 1.463 5.136 2.293 1.429.832 2.593 1.745 3.49 2.742s1.562 2.119 1.994 3.366c.435 1.246.651 2.651.651 4.213zM231.624 61.935a21.652 21.652 0 0 1-3.69 3.615 22.063 22.063 0 0 1-4.163 2.518 20.7 20.7 0 0 1-4.437 1.471 22.09 22.09 0 0 1-4.512.474c-2.959 0-5.734-.532-8.327-1.596-2.592-1.063-4.853-2.525-6.781-4.388-1.928-1.861-3.457-4.055-4.587-6.581-1.13-2.526-1.695-5.251-1.695-8.177 0-2.858.557-5.542 1.67-8.052a20.486 20.486 0 0 1 4.587-6.556c1.945-1.861 4.213-3.332 6.806-4.413 2.593-1.08 5.368-1.62 8.327-1.62 3.423 0 6.539.698 9.348 2.094 2.809 1.396 5.193 3.258 7.155 5.584l-5.227 5.335c-1.494-2.027-3.169-3.481-5.027-4.362-1.858-.88-3.932-1.321-6.222-1.321-1.891 0-3.667.349-5.326 1.047a13.898 13.898 0 0 0-4.355 2.867 13.488 13.488 0 0 0-2.937 4.238c-.713 1.612-1.069 3.333-1.069 5.16 0 1.862.356 3.598 1.069 5.21a13.738 13.738 0 0 0 7.289 7.155c1.658.698 3.433 1.047 5.323 1.047a13.02 13.02 0 0 0 5.075-.998 15.642 15.642 0 0 0 4.278-2.643v-3.839h-8.177v-6.581h15.606v13.312zm32.956 7.329h-26.973V29.427h7.877v32.358h19.096v7.479zm42.678-19.943c0 2.859-.556 5.551-1.668 8.077-1.113 2.526-2.631 4.72-4.557 6.581-1.926 1.862-4.167 3.333-6.724 4.413s-5.278 1.621-8.166 1.621c-2.889 0-5.619-.541-8.192-1.621s-4.822-2.55-6.748-4.413c-1.926-1.861-3.444-4.046-4.557-6.556-1.112-2.509-1.668-5.21-1.668-8.102s.556-5.601 1.668-8.127c1.113-2.525 2.631-4.719 4.557-6.581 1.926-1.861 4.175-3.324 6.748-4.388 2.573-1.063 5.304-1.595 8.192-1.595s5.609.532 8.166 1.595c2.557 1.064 4.798 2.535 6.724 4.413a20.993 20.993 0 0 1 4.557 6.581c1.112 2.51 1.668 5.21 1.668 8.102zm-7.728 0c0-1.828-.35-3.548-1.05-5.16a13.553 13.553 0 0 0-2.872-4.238 13.874 13.874 0 0 0-4.271-2.892 12.817 12.817 0 0 0-5.194-1.072c-1.865 0-3.614.357-5.246 1.072a13.868 13.868 0 0 0-4.271 2.892 13.553 13.553 0 0 0-2.872 4.238c-.699 1.612-1.049 3.333-1.049 5.16 0 1.795.35 3.507 1.049 5.135a13.46 13.46 0 0 0 2.872 4.263 13.85 13.85 0 0 0 4.271 2.892c1.632.715 3.381 1.072 5.246 1.072 1.831 0 3.563-.357 5.194-1.072a13.822 13.822 0 0 0 4.271-2.892 13.46 13.46 0 0 0 2.872-4.263 12.849 12.849 0 0 0 1.05-5.135zm42.18 8.526c0 1.663-.342 3.199-1.022 4.612a11.633 11.633 0 0 1-2.717 3.64 12.459 12.459 0 0 1-3.914 2.368 12.935 12.935 0 0 1-4.662.848l-16.104-.05V29.377h14.359c1.729 0 3.332.258 4.812.773 1.479.516 2.768 1.264 3.864 2.244 1.097.98 1.952 2.177 2.567 3.59.614 1.413.923 3 .923 4.761 0 1.496-.333 2.942-.998 4.338s-1.545 2.576-2.642 3.54c.863.432 1.637.98 2.318 1.645a10.761 10.761 0 0 1 1.745 2.219 10.561 10.561 0 0 1 1.471 5.36zm-9.523-16.952c0-.964-.183-1.795-.548-2.493a5.163 5.163 0 0 0-1.472-1.745 6.489 6.489 0 0 0-2.118-1.047 8.885 8.885 0 0 0-2.493-.349h-4.537V46.23c.83.034 1.578.05 2.243.05h2.294c.864 0 1.695-.1 2.493-.299a6.313 6.313 0 0 0 2.118-.947 4.776 4.776 0 0 0 1.472-1.67c.365-.682.548-1.505.548-2.469zm1.496 16.503a5.49 5.49 0 0 0-.474-2.293 5.144 5.144 0 0 0-1.297-1.77 6.054 6.054 0 0 0-1.895-1.122 6.593 6.593 0 0 0-2.318-.398 74.751 74.751 0 0 0-3.34-.025c-1.098.017-2.211.025-3.341.025v11.019h5.783c.831 0 1.662-.1 2.493-.299.83-.199 1.57-.523 2.219-.972s1.172-1.014 1.57-1.695c.4-.683.6-1.506.6-2.47zm53.747 11.866h-8.477l-3.689-7.978h-19.345l-3.739 7.978h-8.476l18.846-39.887h6.033l18.847 39.887zm-15.207-14.409l-6.631-14.359-6.731 14.359h13.362zm46.169 14.409h-26.974V29.427h7.878v32.358h19.096v7.479z" fill="#007EAE"/><defs><path id="c" d="M-26-283.39h595.28V558.5H-26z"/></defs><clipPath id="d"><use xlink:href="#c" overflow="visible"/></clipPath><path clip-path="url(#d)" fill="#39A9DC" d="M91.318 32.574c-5.377 3.859-8.325 9.438-10.796 15.354l-.398-.034-1.953-8.777c-2.399 1.997-4.797 3.731-6.888 5.779-9.736 9.534-15.756 21.059-17.146 34.63-1.665 16.245 3.055 30.633 13.49 43.277 8.598 10.419 19.859 15.381 32.899 16.896 3.985.463 8.039.333 11.99.472.007-.006-.116.125-.267.194-8.281 3.769-16.909 6.087-26.065 6.014-11.768-.096-22.14-4.088-31.139-11.591-10.757-8.969-17.81-20.254-20.261-34.11-3.248-18.363 1.301-34.764 13.483-48.853 9.301-10.758 21.231-16.992 35.296-19.06 2.51-.369 5.07-.397 7.607-.582l.148.391"/><path clip-path="url(#d)" fill="#00A5E3" d="M71.08 72.862c.529 6.961 3.832 12.428 7.666 17.66l-.184.299-6.741-2.12c2.056 15.596 14.172 30.214 32.662 32.703 19.488 2.624 37.478-9.849 42.376-29.064 0 1.463.078 2.931-.012 4.389-.618 9.933-4.194 18.624-11.023 25.916-5.661 6.045-12.692 9.605-20.749 11.177-11.6 2.264-22.412.314-31.943-6.817-10.578-7.914-16.349-18.582-17.135-31.839-.433-7.299 1.072-14.215 4.235-20.786.204-.423.458-.824.848-1.518"/><path fill="#007EAE" d="M169.434 2.02h5.167v148.247h-5.167z"/></svg>